<svg xmlns="http://www.w3.org/2000/svg" width="500" height="500" viewBox="0 0 500 500"><rect width="100%" height="100%" fill="#DDDDDD"/><path fill="#999999" d="M177.105 271.58h-31.08v56.98h-31.51V171.44h62.59q27.09 0 42.63 13.82 15.54 13.81 15.54 36.36 0 22.55-15.54 36.26-15.54 13.7-42.63 13.7Zm-31.08-75.86v51.58h31.08q13.17 0 19.97-7.17 6.79-7.18 6.79-18.29 0-11.33-6.74-18.73-6.74-7.39-20.02-7.39h-31.08Zm239.46-24.28v157.12h-31.4l-63.46-107.37-.64.11v107.26h-31.51V171.44h31.51l63.45 107.27.65-.11V171.44h31.4Z"/></svg>